<svg width="126" height="25" viewBox="0 0 126 25" fill="none" xmlns="http://www.w3.org/2000/svg">
<path d="M24.8379 15.7373C24.7383 17.1143 24.2285 18.1982 23.3086 18.9893C22.3945 19.7803 21.1875 20.1758 19.6875 20.1758C18.0469 20.1758 16.7549 19.625 15.8115 18.5234C14.874 17.416 14.4053 15.8984 14.4053 13.9707V13.1885C14.4053 11.958 14.6221 10.874 15.0557 9.93652C15.4893 8.99902 16.1074 8.28125 16.9102 7.7832C17.7188 7.2793 18.6562 7.02734 19.7227 7.02734C21.1992 7.02734 22.3887 7.42285 23.291 8.21387C24.1934 9.00488 24.7148 10.1152 24.8555 11.5449H22.2188C22.1543 10.7188 21.9229 10.1211 21.5244 9.75195C21.1318 9.37695 20.5312 9.18945 19.7227 9.18945C18.8438 9.18945 18.1846 9.50586 17.7451 10.1387C17.3115 10.7656 17.0889 11.7412 17.0771 13.0654V14.0322C17.0771 15.415 17.2852 16.4258 17.7012 17.0645C18.123 17.7031 18.7852 18.0225 19.6875 18.0225C20.502 18.0225 21.1084 17.8379 21.5068 17.4688C21.9111 17.0938 22.1426 16.5166 22.2012 15.7373H24.8379ZM33.7939 17.3633H29.1709L28.292 20H25.4883L30.252 7.20312H32.6953L37.4854 20H34.6816L33.7939 17.3633ZM29.8828 15.2275H33.082L31.4736 10.4375L29.8828 15.2275ZM41.3174 17.8818H46.916V20H38.6807V7.20312H41.3174V17.8818ZM51.0732 17.8818H56.6719V20H48.4365V7.20312H51.0732V17.8818ZM86.0889 16.3086L87.8115 7.20312H90.4395L87.6006 20H84.9463L82.8633 11.4395L80.7803 20H78.126L75.2871 7.20312H77.915L79.6465 16.291L81.7559 7.20312H83.9883L86.0889 16.3086ZM99.5713 14.4541H94.5088V17.8818H100.45V20H91.8721V7.20312H100.433V9.33887H94.5088V12.3887H99.5713V14.4541ZM101.997 20V7.20312H106.479C108.032 7.20312 109.21 7.50195 110.013 8.09961C110.815 8.69141 111.217 9.56152 111.217 10.71C111.217 11.3369 111.056 11.8906 110.733 12.3711C110.411 12.8457 109.963 13.1943 109.389 13.417C110.045 13.5811 110.561 13.9121 110.936 14.4102C111.316 14.9082 111.507 15.5176 111.507 16.2383C111.507 17.4688 111.114 18.4004 110.329 19.0332C109.544 19.666 108.425 19.9883 106.972 20H101.997ZM104.634 14.4277V17.8818H106.893C107.514 17.8818 107.997 17.7354 108.343 17.4424C108.694 17.1436 108.87 16.7334 108.87 16.2119C108.87 15.04 108.264 14.4453 107.051 14.4277H104.634ZM104.634 12.5645H106.585C107.915 12.541 108.58 12.0107 108.58 10.9736C108.58 10.3936 108.41 9.97754 108.07 9.72559C107.736 9.46777 107.206 9.33887 106.479 9.33887H104.634V12.5645Z" fill="#3F51B5"/>
<path d="M61 14.7702V14.7563C61.1255 13.1384 61.7113 11.925 62.7294 11.1579C63.7336 10.3769 64.8215 10.0003 66.007 10.0003C67.2483 9.98639 68.4059 10.4048 69.4379 11.2416C70.484 12.0645 71 13.2918 71 14.8818V14.9794C71 16.5833 70.484 17.7828 69.4379 18.6056C68.3919 19.4425 67.2343 19.8609 65.993 19.8609H65.9372C64.7238 19.8469 63.6081 19.4285 62.576 18.5917C61.5439 17.7688 61.0139 16.4996 61 14.7702ZM65.7001 12.5805V10.3769H65.3654C65.2957 10.4606 65.2399 10.5582 65.1841 10.6419C65.1283 10.7256 65.0725 10.8093 65.0167 10.9069C64.9609 10.9906 64.8912 11.1022 64.8494 11.1858C64.7936 11.2695 64.7517 11.3532 64.7099 11.4508C64.6262 11.5903 64.5565 11.7298 64.5007 11.8553C64.431 11.9808 64.3752 12.1063 64.3333 12.2179C64.417 12.2737 64.5146 12.3434 64.6262 12.3853C64.7517 12.4271 64.8773 12.469 65.0028 12.4969C65.1423 12.5247 65.2678 12.5387 65.3794 12.5526C65.5049 12.5666 65.6165 12.5805 65.7001 12.5805ZM66.2859 10.3769V12.5666C66.3556 12.5666 66.4393 12.5805 66.523 12.5666C66.6067 12.5666 66.7043 12.5526 66.788 12.5387C66.9414 12.5108 67.1227 12.469 67.2622 12.4271C67.4156 12.3713 67.5551 12.3016 67.6527 12.2179C67.4854 11.8134 67.304 11.4927 67.1227 11.1858C66.9414 10.879 66.7322 10.614 66.5091 10.3909V10.3769H66.2859ZM64.7796 10.5024V10.4885C64.682 10.5303 64.5844 10.6001 64.4728 10.6419C64.3752 10.6837 64.2497 10.7395 64.152 10.7953C63.9568 10.8929 63.7615 11.0045 63.5662 11.13C63.3849 11.2556 63.2036 11.395 63.0502 11.5345C63.106 11.5903 63.1757 11.6461 63.2315 11.6879C63.2873 11.7298 63.357 11.7856 63.4268 11.8413C63.4826 11.8692 63.5523 11.9111 63.622 11.9669C63.6918 12.0087 63.7755 12.0645 63.8591 12.1203C63.9707 11.8692 64.0823 11.6042 64.2218 11.3671C64.3612 11.1161 64.5146 10.879 64.6681 10.6698C64.682 10.6419 64.696 10.614 64.7238 10.5861C64.7378 10.5722 64.7517 10.5303 64.7796 10.5024ZM69.0474 11.5345V11.5206C68.6987 11.2556 68.3919 11.0324 68.0851 10.8929C67.7782 10.7535 67.4714 10.614 67.1925 10.5024C67.4156 10.7256 67.6109 11.0045 67.7364 11.2695C67.8759 11.5485 68.0153 11.8413 68.1269 12.1203C68.1827 12.0924 68.2524 12.0645 68.3361 12.0087C68.4059 11.9669 68.5035 11.925 68.5872 11.8832C68.6709 11.8274 68.7406 11.7716 68.8243 11.7158C68.9079 11.6461 68.9916 11.5903 69.0474 11.5345ZM68.8103 14.6447H70.4142C70.4142 14.1287 70.3027 13.6405 70.0934 13.1384C69.8982 12.6503 69.6192 12.2458 69.2706 11.8971V11.8832C69.2008 11.9948 69.1032 12.0924 69.0056 12.1621C68.894 12.2319 68.7964 12.2876 68.6848 12.3434C68.6151 12.3853 68.5453 12.4411 68.4756 12.469C68.4059 12.5108 68.3082 12.5387 68.2385 12.5805C68.2943 12.6921 68.3501 12.8176 68.4059 12.9292C68.4477 13.0547 68.5174 13.1942 68.5453 13.3197C68.629 13.5429 68.6848 13.78 68.7406 14.0171C68.7824 14.2263 68.8103 14.4494 68.8103 14.6447ZM63.7615 12.5805V12.5666C63.6499 12.5108 63.5244 12.469 63.4268 12.4132C63.3291 12.3434 63.2315 12.2737 63.1478 12.2179C63.0642 12.1761 62.9805 12.1203 62.9107 12.0645C62.841 12.0087 62.7852 11.9529 62.7294 11.8971C62.3668 12.2458 62.1018 12.6363 61.9344 13.0966C61.7531 13.5568 61.6276 14.0729 61.5718 14.6307H63.2873C63.2873 14.2402 63.3431 13.8637 63.4407 13.4871C63.5244 13.0966 63.6499 12.8037 63.7615 12.5805ZM65.7001 14.6307V13.0268C65.5886 13.0408 65.4491 13.0408 65.3236 13.0268C65.1841 13.0129 65.0446 12.971 64.9191 12.9292C64.8075 12.9013 64.6681 12.8734 64.5565 12.8316C64.431 12.8037 64.3054 12.7479 64.2078 12.6921C64.1241 12.8316 64.0544 12.9989 63.9986 13.1803C63.9289 13.3476 63.887 13.5289 63.8452 13.6963C63.8173 13.8637 63.8033 14.045 63.7894 14.1984C63.7755 14.3518 63.7615 14.5052 63.7615 14.6307H65.7001ZM66.2859 13.0547V14.6307H68.3501C68.3501 14.5471 68.3501 14.4494 68.3361 14.3379C68.3082 14.2402 68.2943 14.1147 68.2803 14.0031C68.2385 13.8358 68.1967 13.6545 68.1409 13.4871C68.0851 13.3337 68.0293 13.1803 67.9596 13.0547C67.9317 12.985 67.9038 12.9013 67.8759 12.8455C67.834 12.7758 67.7922 12.7339 67.7643 12.6921C67.6109 12.8037 67.4017 12.8734 67.1506 12.9292C66.9135 12.985 66.6346 13.0408 66.3835 13.0547H66.2859ZM63.2873 15.091H61.5718C61.5718 15.3281 61.6137 15.5931 61.6834 15.9139C61.7531 16.2486 61.8926 16.5554 62.046 16.8902C62.1158 17.0575 62.1994 17.2249 62.2831 17.3922C62.3808 17.5457 62.4923 17.713 62.6039 17.8664C62.6876 17.8107 62.7713 17.7688 62.841 17.727C62.9247 17.6851 63.0223 17.6293 63.106 17.5875C63.2036 17.5457 63.3013 17.5038 63.4128 17.448C63.5105 17.4062 63.636 17.3504 63.7615 17.2946C63.6499 16.9459 63.5244 16.6112 63.4407 16.2346C63.3431 15.872 63.2873 15.5094 63.2873 15.1049V15.091ZM65.7001 16.7228V15.091H63.7615C63.7615 15.2026 63.7755 15.3699 63.8033 15.5373C63.8173 15.7047 63.8591 15.886 63.887 16.0673C63.9428 16.2625 63.9847 16.4578 64.0404 16.6252C64.0962 16.7925 64.152 16.932 64.2078 17.0575C64.4589 16.9599 64.7099 16.8902 64.8773 16.8483C65.0586 16.7925 65.2259 16.7507 65.3933 16.7367H65.5467C65.6025 16.7228 65.6583 16.7228 65.7001 16.7228ZM66.2859 15.091V16.7088C66.3835 16.7228 66.4951 16.7367 66.6067 16.7507C66.7322 16.7646 66.8856 16.7925 67.0112 16.8204L67.2204 16.8623C67.2901 16.8902 67.3738 16.9041 67.4435 16.9181C67.5272 16.9459 67.6109 16.9599 67.6946 16.9878C67.7643 17.0157 67.834 17.0296 67.8898 17.0575C68.0711 16.5973 68.1827 16.2207 68.2524 15.8999C68.3222 15.5931 68.3501 15.3281 68.3501 15.1049V15.091H66.2859ZM70.4142 15.1049V15.091H68.8103V15.1747C68.7964 15.4397 68.7545 15.7465 68.6987 16.0673C68.643 16.3741 68.5174 16.7367 68.3501 17.183C68.5732 17.2946 68.7824 17.4062 68.9498 17.5178C69.1172 17.6293 69.2706 17.7549 69.3821 17.8664C69.6192 17.6293 69.8285 17.3086 70.0098 16.8902C70.1911 16.4857 70.3166 16.0673 70.3863 15.621C70.4003 15.5373 70.4003 15.4536 70.4142 15.3699V15.1049ZM65.7001 19.3448V17.1691C65.3515 17.2249 65.0586 17.2946 64.8354 17.3504C64.6123 17.4062 64.4449 17.462 64.3333 17.5178C64.417 17.727 64.5007 17.9083 64.5844 18.0757C64.6681 18.2291 64.7657 18.3964 64.8494 18.5359C64.8773 18.5917 64.9331 18.6475 64.9749 18.7172C65.0167 18.773 65.0446 18.8427 65.0865 18.8985C65.1283 18.9683 65.1702 19.0519 65.212 19.1356C65.2678 19.2054 65.3096 19.289 65.3654 19.3448H65.7001ZM66.2859 19.3448H66.6067C66.7322 19.2472 66.8577 19.1077 66.9554 18.9543C67.0669 18.8009 67.1925 18.6196 67.2762 18.4662C67.3738 18.2849 67.4714 18.1175 67.5551 17.9501C67.6388 17.7828 67.7085 17.6293 67.7643 17.5178C67.6109 17.462 67.4017 17.4062 67.1925 17.3504C66.9833 17.2946 66.6904 17.2388 66.2859 17.183V19.3448ZM69.0474 18.2012V18.1872C69.0195 18.1454 68.9637 18.0896 68.9219 18.0478C68.8801 18.0059 68.8103 17.9501 68.7406 17.9083C68.6848 17.8664 68.6151 17.8246 68.5314 17.7828C68.4477 17.7409 68.3361 17.6851 68.2385 17.6293C68.1827 17.7409 68.0851 17.9362 67.9456 18.2012C67.8201 18.4662 67.5969 18.7869 67.318 19.1356C67.6667 19.0798 67.9735 18.9543 68.2524 18.7869C68.5593 18.6335 68.8243 18.4243 69.0474 18.2012ZM63.8591 17.7549V17.7409C63.7615 17.7967 63.6081 17.8664 63.4547 17.9362C63.2873 18.0059 63.106 18.0896 62.9386 18.2012C63.0363 18.2849 63.1339 18.3685 63.2176 18.4243C63.3013 18.4941 63.3989 18.5498 63.4826 18.6056C63.636 18.7033 63.8173 18.8009 63.9986 18.8846C64.1799 18.9683 64.4031 19.0519 64.682 19.1356C64.5844 19.024 64.5146 18.8846 64.4449 18.773C64.3752 18.6614 64.2915 18.5498 64.2218 18.4383C64.152 18.3267 64.0962 18.2012 64.0404 18.0896C63.9707 17.978 63.9149 17.8664 63.8591 17.7549Z" fill="#3F51B5"/>
</svg>
